<?xml version="1.0" encoding="UTF-8" standalone="no"?>
<!DOCTYPE svg PUBLIC "-//W3C//DTD SVG 20010904//EN"
              "http://www.w3.org/TR/2001/REC-SVG-20010904/DTD/svg10.dtd">

<svg xmlns="http://www.w3.org/2000/svg"
     width="7.11111in" height="7.11111in"
     viewBox="0 0 512 512">
  <path id="Selection"
        fill="none" stroke="black" stroke-width="1"
        d="M 148.00,271.00
           C 148.00,271.00 108.00,291.50 108.00,291.50
             70.45,315.93 41.79,346.69 21.92,387.00
             17.13,396.70 12.67,406.58 9.72,417.00
             6.25,429.26 0.03,451.57 0.03,464.00
             0.03,474.60 5.37,489.06 13.61,495.91
             17.77,499.36 23.95,502.60 29.00,504.54
             35.37,506.98 40.33,506.99 47.00,507.00
             47.00,507.00 229.00,507.00 229.00,507.00
             229.00,507.00 229.00,465.00 229.00,465.00
             229.00,465.00 206.00,466.00 206.00,466.00
             206.00,466.00 167.00,466.00 167.00,466.00
             167.00,466.00 42.00,466.00 42.00,466.00
             42.11,454.36 46.32,437.15 50.00,426.00
             61.56,391.01 80.02,364.02 108.00,340.00
             132.70,318.79 165.17,305.66 197.00,300.08
             197.00,300.08 245.00,296.71 245.00,296.71
             273.19,293.00 300.35,281.29 322.00,262.72
             351.76,237.18 374.94,195.94 375.00,156.00
             375.00,156.00 375.00,145.00 375.00,145.00
             374.86,133.09 371.96,120.29 368.34,109.00
             349.39,49.87 291.79,4.82 229.00,5.00
             159.12,5.20 95.41,59.90 84.73,129.00
             83.59,136.35 82.20,144.25 82.32,151.72
             82.68,175.43 89.40,199.32 100.85,220.00
             108.69,234.19 120.14,248.76 132.29,259.50
             137.11,263.76 142.03,268.45 148.00,271.00 Z
           M 223.00,46.53
           C 251.83,46.12 281.05,53.18 302.26,74.00
             309.49,81.10 316.76,90.03 321.51,99.00
             329.02,113.15 334.32,135.91 333.94,151.97
             333.01,191.42 315.94,225.72 280.00,244.52
             268.10,250.74 248.40,255.98 235.00,256.00
             235.00,256.00 222.00,256.00 222.00,256.00
             213.55,255.90 203.15,253.73 195.00,251.42
             152.75,239.45 124.07,198.40 124.00,155.00
             123.97,133.36 127.37,113.89 138.63,95.00
             157.00,64.18 188.03,48.88 223.00,46.53 Z
           M 441.72,245.54
           C 416.42,249.23 405.52,262.58 388.72,279.83
             388.72,279.83 363.00,305.00 363.00,305.00
             363.00,305.00 299.00,369.00 299.00,369.00
             299.00,369.00 279.00,389.00 279.00,389.00
             275.62,392.38 270.65,396.88 268.41,401.00
             265.83,405.76 262.60,425.56 261.39,432.00
             261.39,432.00 251.10,483.00 251.10,483.00
             250.34,495.69 258.40,504.67 271.00,505.68
             275.81,506.06 295.13,501.71 301.00,500.42
             301.00,500.42 348.00,491.08 348.00,491.08
             358.30,489.14 361.87,484.13 369.00,477.00
             369.00,477.00 392.00,454.00 392.00,454.00
             392.00,454.00 469.00,377.00 469.00,377.00
             469.00,377.00 481.28,364.42 481.28,364.42
             491.57,354.29 502.01,345.01 507.05,331.00
             510.42,321.64 512.72,312.31 511.77,302.28
             508.44,267.08 476.86,241.04 441.72,245.54 Z
           M 447.91,286.38
           C 459.59,285.89 467.91,292.54 470.19,304.00
             471.05,308.34 470.50,320.80 463.96,320.80
             460.86,320.80 454.30,313.30 452.00,311.00
             452.00,311.00 443.00,302.00 443.00,302.00
             438.22,297.21 431.08,290.86 442.00,287.39
             442.00,287.39 447.91,286.38 447.91,286.38 Z
           M 406.00,322.00
           C 406.00,322.00 435.00,352.00 435.00,352.00
             435.00,352.00 413.04,374.17 413.04,374.17
             413.04,374.17 405.91,381.83 405.91,381.83
             405.91,381.83 387.04,400.09 387.04,400.09
             387.04,400.09 349.00,438.17 349.00,438.17
             349.00,438.17 335.91,450.56 335.91,450.56
             335.91,450.56 323.00,454.00 323.00,454.00
             323.00,454.00 298.00,458.00 298.00,458.00
             298.00,458.00 306.31,421.00 306.31,421.00
             306.31,421.00 316.91,409.96 316.91,409.96
             316.91,409.96 343.00,383.91 343.00,383.91
             343.00,383.91 365.17,361.17 365.17,361.17
             365.17,361.17 387.00,339.96 387.00,339.96
             387.00,339.96 406.00,322.00 406.00,322.00 Z" />
</svg>
